<svg version="1.1" id="Layer_1" xmlns="http://www.w3.org/2000/svg" xmlns:xlink="http://www.w3.org/1999/xlink" x="0px" y="0px"
	 width="100%" viewBox="0 0 320 319" enable-background="new 0 0 320 319" xml:space="preserve">
<path fill="#FFFFFF" opacity="1.000000" stroke="none" 
	d="
M176.000000,320.000000 
	C117.333351,320.000000 59.166710,320.000000 1.000047,320.000000 
	C1.000031,213.666733 1.000031,107.333450 1.000016,1.000132 
	C107.666565,1.000088 214.333130,1.000088 320.999756,1.000044 
	C320.999847,107.333199 320.999847,213.666397 320.999939,319.999817 
	C272.833344,320.000000 224.666672,320.000000 176.000000,320.000000 
M229.119629,166.996460 
	C228.386948,165.794403 227.139801,164.640503 227.021866,163.380890 
	C226.716629,160.121017 227.325317,156.744522 226.787140,153.546173 
	C226.239517,150.291687 226.692734,145.976166 221.295197,144.721420 
	C216.791275,136.828857 204.753876,136.575760 198.619980,144.893661 
	C200.091980,145.877228 201.547318,146.849670 203.091522,148.536392 
	C203.385818,149.678818 203.680115,150.821259 203.318726,152.201157 
	C195.919571,156.719757 195.781097,162.849594 203.097122,168.749832 
	C204.837204,172.623016 208.783157,174.987213 211.921799,173.639893 
	C217.717941,171.151810 223.197983,173.035233 228.785828,172.743988 
	C229.058838,172.729752 229.314575,172.384033 229.816238,172.020096 
	C229.881744,170.722992 229.956406,169.244873 230.827133,167.943878 
	C232.182922,168.020187 233.538727,168.096497 234.954315,169.002335 
	C234.783630,175.086700 238.588974,172.766220 241.589966,172.481110 
	C242.044815,167.049362 242.512375,161.956650 242.884140,156.856949 
	C243.139954,153.347870 245.015244,151.679596 248.390228,150.869583 
	C250.415344,150.383545 252.200882,148.899292 254.750351,147.945602 
	C255.171463,147.831818 255.592575,147.718048 256.069336,148.356369 
	C256.360779,149.543564 256.652252,150.730759 256.274353,152.135910 
	C248.697083,156.371887 248.546021,163.311447 256.070435,168.797134 
	C260.149872,174.483658 264.173889,175.382690 270.093353,172.359726 
	C271.362274,171.711685 273.503815,171.671158 274.767273,172.302917 
	C280.416290,175.127533 282.762238,173.970322 283.792084,167.980560 
	C284.842926,168.015366 285.893768,168.050171 287.052887,168.918259 
	C287.672485,173.546768 288.539307,173.918930 294.986359,172.006012 
	C294.986359,167.548248 294.949799,162.954865 294.997101,158.362350 
	C295.040436,154.154877 296.721527,151.066315 301.236481,150.870285 
	C301.236481,156.469238 301.236481,162.068192 301.236481,167.761185 
	C303.291016,167.923935 304.606201,168.028122 305.994995,168.967590 
	C306.625366,173.564636 307.695740,174.002457 313.861938,171.958389 
	C313.861938,165.935516 314.216949,159.777115 313.708710,153.690811 
	C313.463196,150.750504 313.666382,146.642334 308.646545,145.397202 
	C304.416748,137.442841 298.566956,136.496994 290.393280,142.445877 
	C289.045959,138.691910 289.045959,138.691910 283.424896,139.725891 
	C283.297119,140.019104 283.060211,140.311279 283.057434,140.605667 
	C282.974426,149.375748 282.914551,158.146057 282.029633,166.962631 
	C281.314758,165.909958 280.144348,164.922943 279.981140,163.790756 
	C279.654114,161.522064 280.272858,159.087799 279.790558,156.876907 
	C278.838135,152.510773 280.388550,146.820633 273.903412,144.254486 
	C268.952789,136.859604 258.788147,136.670975 250.902695,143.923157 
	C249.866241,143.957474 248.829773,143.991791 247.820694,143.179932 
	C247.471817,141.876984 246.952911,139.418747 246.799118,139.441391 
	C243.610229,139.910706 240.462799,140.661774 237.143997,141.393066 
	C236.191727,138.608917 236.191727,138.608917 230.513657,139.770462 
	C230.391022,140.066650 230.163727,140.361877 230.160950,140.659180 
	C230.078873,149.430191 230.019104,158.201401 229.119629,166.996460 
M91.727486,161.201187 
	C93.491615,163.125092 95.255737,165.048981 97.106293,167.671692 
	C101.368958,173.875153 110.066086,175.908173 116.761086,171.951996 
	C118.444954,170.956940 119.504417,168.905212 120.850853,167.339111 
	C119.184830,166.226929 117.518806,165.114746 116.040977,163.257126 
	C116.028358,162.504745 116.015739,161.752365 116.836494,160.989624 
	C118.436287,160.410736 120.713234,160.301437 121.503868,159.161392 
	C123.550835,156.209824 120.702011,149.051437 116.717133,146.360229 
	C113.902153,139.763321 108.498138,138.280029 102.031029,138.970520 
	C96.191788,139.593948 92.760124,142.999054 90.233345,149.905518 
	C88.560410,148.562225 86.887482,147.218933 84.931366,145.248550 
	C80.907043,139.417847 76.167168,137.538574 69.474586,139.120209 
	C63.631397,140.501114 59.840809,145.096146 59.266983,151.798355 
	C58.678329,158.673782 61.044418,164.195633 67.114212,168.571899 
	C71.051910,174.355820 80.400711,175.899933 86.550659,171.512848 
	C87.990875,170.485474 88.720245,168.461594 89.776649,166.896179 
	C88.019119,165.940613 86.261589,164.985046 84.816078,163.308121 
	C84.799316,162.545868 84.782562,161.783615 85.686935,160.972656 
	C87.517029,160.926880 89.347130,160.881104 91.727486,161.201187 
M142.380035,157.658035 
	C145.325043,153.501404 148.270065,149.344772 151.344696,145.005203 
	C148.666916,144.133514 146.743942,143.507538 145.156662,142.287628 
	C145.631714,141.365524 146.106781,140.443420 146.581879,139.521240 
	C141.491089,137.981033 138.227493,139.868683 135.329941,143.318924 
	C135.226151,141.173340 134.910858,139.012039 135.068771,136.885880 
	C135.298309,133.795471 134.052826,132.569122 130.903976,132.162857 
	C130.432266,126.936226 130.135483,126.775665 123.447083,128.335403 
	C123.447083,141.313171 123.447083,154.354630 123.447083,167.666672 
	C125.007568,167.849014 126.447372,168.017258 127.948631,169.013519 
	C127.667648,171.806931 128.574997,173.148117 131.735062,173.084671 
	C134.863449,173.021835 135.121811,171.367783 135.036850,168.998230 
	C134.949265,166.555344 134.996201,164.107635 135.598282,162.009369 
	C137.689301,164.091476 139.780304,166.173584 142.044525,168.956818 
	C144.627335,173.603241 146.433762,174.153610 152.777130,171.481644 
	C150.969223,170.107758 149.588425,169.058441 148.107391,167.296814 
	C146.001953,164.205582 143.896515,161.114349 142.380035,157.658035 
M192.154312,133.254105 
	C192.719803,132.353180 193.285278,131.452255 193.912750,130.452576 
	C188.881729,128.974365 185.276672,130.132568 182.690216,134.382690 
	C181.676498,136.048462 180.228317,137.449844 178.397095,138.521988 
	C178.264877,134.994003 175.892136,134.696564 173.063019,134.039917 
	C172.966736,132.779449 172.870453,131.518967 172.778427,130.314209 
	C170.119720,130.314209 167.899063,130.314209 165.476501,130.314209 
	C165.476501,142.900070 165.476501,155.127579 165.476501,167.668686 
	C167.050430,167.836426 168.483200,167.989136 169.989227,168.976364 
	C170.619614,173.557312 171.584183,173.957306 177.451477,172.148926 
	C177.947174,167.432770 178.438232,162.760803 179.352982,158.603760 
	C182.519592,161.833633 185.686203,165.063522 188.944962,169.020859 
	C190.861099,175.093353 195.519348,172.572571 200.167252,171.616516 
	C198.759674,170.409149 197.352112,169.201782 195.836044,167.321945 
	C192.467377,162.953751 189.098709,158.585571 185.902802,153.479431 
	C190.154007,147.546921 194.405212,141.614410 198.630951,135.717453 
	C196.102600,135.032730 193.943039,134.447876 192.154312,133.254105 
M17.003962,168.955322 
	C16.834751,174.879593 20.528570,172.839752 23.474808,172.486481 
	C23.970808,167.128189 24.434275,162.121368 25.101402,157.828018 
	C25.928005,160.116531 26.441730,162.596451 27.685678,164.629623 
	C28.590775,166.108978 30.460335,166.998245 32.016491,168.904251 
	C32.407146,171.453430 33.387104,173.070358 36.462326,173.070267 
	C39.299564,173.070175 40.556900,171.962234 41.399345,169.356995 
	C41.993412,167.519852 43.445896,165.960281 44.583904,164.907867 
	C43.875118,168.878769 46.907814,167.819611 48.998817,168.959595 
	C48.697903,171.835464 49.667870,173.201630 52.879131,173.078690 
	C55.934422,172.961716 56.968430,171.690704 56.947075,168.797333 
	C56.874596,158.977142 56.818974,149.154495 56.972481,139.336166 
	C57.030453,135.628525 55.232063,134.670074 51.893162,134.130676 
	C51.623569,132.353729 52.561489,129.548737 49.261509,130.034485 
	C46.380219,130.458603 42.500908,127.895462 40.928684,132.883408 
	C38.798389,139.641861 36.294136,146.282455 33.950298,152.973602 
	C31.183752,148.271988 29.833729,143.357605 27.743448,138.781342 
	C26.328083,135.682678 24.420612,132.164398 21.710102,130.502487 
	C19.480537,129.135452 15.745623,130.223587 12.478875,130.223587 
	C12.478875,142.902985 12.478875,155.128510 12.478875,167.682739 
	C14.050139,167.839661 15.482836,167.982727 17.003962,168.955322 
z"/>
<path fill="#FF9554" opacity="1.000000" stroke="none" 
	d="
M31.899893,168.150604 
	C30.460335,166.998245 28.590775,166.108978 27.685678,164.629623 
	C26.441730,162.596451 25.928005,160.116531 25.009392,157.092499 
	C23.329275,152.153183 21.741173,147.949371 20.153069,143.745560 
	C19.111691,150.613342 19.235611,157.290283 19.011995,163.955582 
	C18.964628,165.367508 17.647581,166.736847 16.915529,168.125809 
	C15.482836,167.982727 14.050139,167.839661 12.478875,167.682739 
	C12.478875,155.128510 12.478875,142.902985 12.478875,130.223587 
	C15.745623,130.223587 19.480537,129.135452 21.710102,130.502487 
	C24.420612,132.164398 26.328083,135.682678 27.743448,138.781342 
	C29.833729,143.357605 31.183752,148.271988 33.950298,152.973602 
	C36.294136,146.282455 38.798389,139.641861 40.928684,132.883408 
	C42.500908,127.895462 46.380219,130.458603 49.261509,130.034485 
	C52.561489,129.548737 51.623569,132.353729 51.917969,135.022461 
	C51.936909,145.355682 51.889729,154.797394 51.955441,164.238312 
	C51.971050,166.480682 51.746746,168.243439 48.919647,168.132904 
	C46.907814,167.819611 43.875118,168.878769 44.698483,164.134003 
	C44.813061,156.757385 44.813061,150.154648 44.813061,143.551895 
	C44.345318,143.515427 43.877575,143.478958 43.409828,143.442490 
	C41.101601,150.299469 38.979591,157.228989 36.356091,163.963150 
	C35.688221,165.677460 33.428307,166.771545 31.899893,168.150604 
z"/>
<path fill="#FF9554" opacity="1.000000" stroke="none" 
	d="
M185.730057,154.217377 
	C189.098709,158.585571 192.467377,162.953751 195.449524,167.654083 
	C192.992950,168.088608 190.922867,168.191010 188.852798,168.293396 
	C185.686203,165.063522 182.519592,161.833633 179.032776,158.026733 
	C177.113342,155.729630 175.514145,154.009552 173.024994,151.332275 
	C173.024994,156.673065 172.917099,160.563354 173.064987,164.443909 
	C173.155319,166.814148 172.577652,168.276764 169.915970,168.141830 
	C168.483200,167.989136 167.050430,167.836426 165.476501,167.668686 
	C165.476501,155.127579 165.476501,142.900070 165.476501,130.314209 
	C167.899063,130.314209 170.119720,130.314209 172.778427,130.314209 
	C172.870453,131.518967 172.966736,132.779449 173.061447,134.918640 
	C173.059875,138.644287 173.059875,141.491211 173.059875,145.798782 
	C175.679657,142.776581 177.328827,140.874100 178.977997,138.971619 
	C180.228317,137.449844 181.676498,136.048462 182.690216,134.382690 
	C185.276672,130.132568 188.881729,128.974365 193.912750,130.452576 
	C193.285278,131.452255 192.719803,132.353180 191.684708,133.727188 
	C189.043900,136.908112 186.830505,139.583374 184.710114,142.330429 
	C180.022858,148.402954 180.041946,148.417694 185.730057,154.217377 
z"/>
<path fill="#FF9758" opacity="1.000000" stroke="none" 
	d="
M141.871307,168.255707 
	C139.780304,166.173584 137.689301,164.091476 135.186554,161.537933 
	C133.759079,159.820496 132.743332,158.574493 130.913956,156.330414 
	C130.913956,160.193253 131.262787,162.569885 130.781433,164.764450 
	C130.498520,166.054352 128.896103,167.054840 127.887177,168.185501 
	C126.447372,168.017258 125.007568,167.849014 123.447083,167.666672 
	C123.447083,154.354630 123.447083,141.313171 123.447083,128.335403 
	C130.135483,126.775665 130.432266,126.936226 130.923004,133.031036 
	C130.942047,138.944931 130.942047,143.990631 130.942047,150.236389 
	C133.121384,147.440231 134.511383,145.656799 135.901398,143.873383 
	C138.227493,139.868683 141.491089,137.981033 146.581879,139.521240 
	C146.106781,140.443420 145.631714,141.365524 144.706879,142.760666 
	C143.253708,144.533829 142.280060,145.858261 141.241684,147.129822 
	C136.882034,152.468430 136.874939,152.462631 141.791077,158.023102 
	C143.896515,161.114349 146.001953,164.205582 147.701248,167.664520 
	C145.487167,168.106735 143.679245,168.181213 141.871307,168.255707 
z"/>
<path fill="#FF9452" opacity="1.000000" stroke="none" 
	d="
M203.002655,147.822113 
	C201.547318,146.849670 200.091980,145.877228 198.619980,144.893661 
	C204.753876,136.575760 216.791275,136.828857 221.540222,145.441010 
	C221.824844,150.144608 221.794769,154.131226 221.945526,158.111008 
	C221.992172,159.342865 222.465790,160.577408 222.859131,161.772812 
	C223.445450,163.554688 224.133972,165.302902 224.779007,167.065445 
	C223.062363,167.367508 221.076843,168.371597 219.680695,167.836868 
	C215.857239,166.372467 212.427750,166.999786 208.737381,168.166702 
	C206.996750,168.717072 204.897293,168.132690 202.960434,168.062485 
	C195.781097,162.849594 195.919571,156.719757 204.046417,152.066406 
	C206.873077,151.526932 209.151306,151.492279 211.010117,150.591812 
	C212.323685,149.955475 213.069016,148.146118 214.068039,146.860443 
	C212.659271,146.003998 211.043381,144.223526 209.884796,144.483215 
	C207.462952,145.026077 205.282349,146.645126 203.002655,147.822113 
M211.395599,162.092804 
	C212.724701,160.082611 214.053802,158.072433 216.102890,154.973343 
	C212.834030,155.509888 211.095047,155.426483 209.744202,156.110046 
	C208.040146,156.972336 205.342026,158.508865 205.384918,159.669037 
	C205.494934,162.644684 207.901886,163.577667 211.395599,162.092804 
z"/>
<path fill="#FF9452" opacity="1.000000" stroke="none" 
	d="
M67.135910,167.841995 
	C61.044418,164.195633 58.678329,158.673782 59.266983,151.798355 
	C59.840809,145.096146 63.631397,140.501114 69.474586,139.120209 
	C76.167168,137.538574 80.907043,139.417847 85.054123,145.976044 
	C85.423050,149.373138 85.669212,152.042770 85.974907,155.357941 
	C79.097458,155.357941 73.205124,155.357941 67.275970,155.357941 
	C67.884346,161.248840 70.069443,162.535400 74.929184,161.490250 
	C78.083206,160.811905 81.359001,157.773285 84.765808,161.021362 
	C84.782562,161.783615 84.799316,162.545868 84.396912,163.819824 
	C79.198349,169.505524 73.226730,168.959717 67.135910,167.841995 
M77.480858,146.120834 
	C71.747765,142.562637 68.489326,143.855850 67.343422,150.546722 
	C71.108734,150.546722 74.810799,150.546722 79.058052,150.546722 
	C78.635414,149.158279 78.272545,147.966171 77.480858,146.120834 
z"/>
<path fill="#FF9452" opacity="1.000000" stroke="none" 
	d="
M256.013672,147.604263 
	C255.592575,147.718048 255.171463,147.831818 254.276154,147.606644 
	C253.091003,146.125763 252.380051,144.983826 251.669098,143.841888 
	C258.788147,136.670975 268.952789,136.859604 273.992798,145.054443 
	C274.100922,149.820801 274.008240,153.792572 274.200104,157.750565 
	C274.265625,159.101639 274.705963,161.257080 275.559540,161.603104 
	C279.007874,163.000916 277.934387,165.251785 277.377136,168.548752 
	C274.606232,167.833755 272.217316,167.069580 269.769623,166.642029 
	C268.337952,166.391953 266.798492,166.566437 265.332001,166.748001 
	C262.188385,167.137253 259.060638,167.654968 255.926407,168.120087 
	C248.546021,163.311447 248.697083,156.371887 257.002869,152.017761 
	C259.957153,151.365768 262.333527,151.145630 264.350861,150.177444 
	C265.514374,149.619049 266.097809,147.852112 266.942322,146.629135 
	C265.773560,145.876251 264.406342,144.302277 263.474030,144.527603 
	C260.890289,145.152100 258.487793,146.526321 256.013672,147.604263 
M261.029175,156.387344 
	C260.085754,157.857285 259.142303,159.327225 258.198883,160.797165 
	C259.550049,161.478302 261.052246,162.932373 262.225494,162.703079 
	C266.657990,161.836884 267.913116,158.613937 267.332458,154.405045 
	C265.401001,154.997284 263.580994,155.555344 261.029175,156.387344 
z"/>
<path fill="#FF9451" opacity="1.000000" stroke="none" 
	d="
M286.944611,168.084961 
	C285.893768,168.050171 284.842926,168.015366 283.393982,167.674652 
	C282.995911,167.368744 282.851044,166.916321 282.851044,166.916321 
	C282.914551,158.146057 282.974426,149.375748 283.057434,140.605667 
	C283.060211,140.311279 283.297119,140.019104 283.431152,139.728622 
	C289.045959,138.691910 289.045959,138.691910 290.393280,142.445877 
	C298.566956,136.496994 304.416748,137.442841 308.776581,146.158447 
	C308.912598,152.698807 308.856598,158.479004 308.955719,164.256531 
	C308.994293,166.504852 308.725372,168.237762 305.921387,168.132309 
	C304.606201,168.028122 303.291016,167.923935 301.236481,167.761185 
	C301.236481,162.068192 301.236481,156.469238 301.176788,150.013184 
	C300.038635,147.808929 299.032654,145.378769 297.869232,145.300919 
	C292.657166,144.952148 290.364410,147.213623 290.102081,152.473495 
	C289.896637,156.592102 290.268097,160.748581 289.896118,164.843979 
	C289.790741,166.004089 287.975586,167.008911 286.944611,168.084961 
z"/>
<path fill="#FF9451" opacity="1.000000" stroke="none" 
	d="
M90.889694,149.928543 
	C92.760124,142.999054 96.191788,139.593948 102.031029,138.970520 
	C108.498138,138.280029 113.902153,139.763321 116.845680,147.109863 
	C116.974228,150.116150 116.974228,152.372803 116.974228,155.345444 
	C110.282722,155.345444 104.279305,155.345444 98.139420,155.345444 
	C99.794540,162.102646 101.826668,163.178879 107.554375,161.139099 
	C110.322250,160.153397 113.145515,158.291885 116.003120,160.999985 
	C116.015739,161.752365 116.028358,162.504745 115.638596,163.763336 
	C109.871269,169.935837 103.557121,169.206070 97.019859,166.972885 
	C95.255737,165.048981 93.491615,163.125092 91.437180,160.571014 
	C91.061142,156.603409 90.975418,153.265976 90.889694,149.928543 
M98.622910,150.415359 
	C102.284576,150.634338 105.946243,150.853317 109.655800,151.075165 
	C110.285744,146.599533 108.261787,144.568222 105.012489,144.193878 
	C101.225800,143.757629 98.821037,145.795273 98.622910,150.415359 
z"/>
<path fill="#FF9553" opacity="1.000000" stroke="none" 
	d="
M234.894501,168.172806 
	C233.538727,168.096497 232.182922,168.020187 230.447479,167.653503 
	C230.067825,167.363144 229.955795,166.972580 229.955780,166.972580 
	C230.019104,158.201401 230.078873,149.430191 230.160950,140.659180 
	C230.163727,140.361877 230.391022,140.066650 230.519699,139.772964 
	C236.191727,138.608917 236.191727,138.608917 237.143997,141.393066 
	C240.462799,140.661774 243.610229,139.910706 246.799118,139.441391 
	C246.952911,139.418747 247.471817,141.876984 247.546158,143.856583 
	C246.666367,144.990738 246.103012,145.770844 245.449356,145.855743 
	C239.035095,146.688690 237.465363,148.241730 237.164871,154.697189 
	C237.012405,157.972351 237.334518,161.279480 237.025101,164.532486 
	C236.904327,165.801987 235.638672,166.962585 234.894501,168.172806 
z"/>
<path fill="#FFD4BA" opacity="1.000000" stroke="none" 
	d="
M282.440338,166.939484 
	C282.851044,166.916321 282.995911,167.368744 283.005676,167.605865 
	C282.762238,173.970322 280.416290,175.127533 274.767273,172.302917 
	C273.503815,171.671158 271.362274,171.711685 270.093353,172.359726 
	C264.173889,175.382690 260.149872,174.483658 255.998413,168.458618 
	C259.060638,167.654968 262.188385,167.137253 265.332001,166.748001 
	C266.798492,166.566437 268.337952,166.391953 269.769623,166.642029 
	C272.217316,167.069580 274.606232,167.833755 277.377136,168.548752 
	C277.934387,165.251785 279.007874,163.000916 275.559540,161.603104 
	C274.705963,161.257080 274.265625,159.101639 274.200104,157.750565 
	C274.008240,153.792572 274.100922,149.820801 274.118195,145.381653 
	C280.388550,146.820633 278.838135,152.510773 279.790558,156.876907 
	C280.272858,159.087799 279.654114,161.522064 279.981140,163.790756 
	C280.144348,164.922943 281.314758,165.909958 282.440338,166.939484 
z"/>
<path fill="#FFD5BC" opacity="1.000000" stroke="none" 
	d="
M229.537720,166.984528 
	C229.955795,166.972580 230.067825,167.363144 230.049438,167.564941 
	C229.956406,169.244873 229.881744,170.722992 229.816238,172.020096 
	C229.314575,172.384033 229.058838,172.729752 228.785828,172.743988 
	C223.197983,173.035233 217.717941,171.151810 211.921799,173.639893 
	C208.783157,174.987213 204.837204,172.623016 203.028778,168.406158 
	C204.897293,168.132690 206.996750,168.717072 208.737381,168.166702 
	C212.427750,166.999786 215.857239,166.372467 219.680695,167.836868 
	C221.076843,168.371597 223.062363,167.367508 224.779007,167.065445 
	C224.133972,165.302902 223.445450,163.554688 222.859131,161.772812 
	C222.465790,160.577408 221.992172,159.342865 221.945526,158.111008 
	C221.794769,154.131226 221.824844,150.144608 221.746002,145.717438 
	C226.692734,145.976166 226.239517,150.291687 226.787140,153.546173 
	C227.325317,156.744522 226.716629,160.121017 227.021866,163.380890 
	C227.139801,164.640503 228.386948,165.794403 229.537720,166.984528 
z"/>
<path fill="#FFD3B8" opacity="1.000000" stroke="none" 
	d="
M234.924408,168.587555 
	C235.638672,166.962585 236.904327,165.801987 237.025101,164.532486 
	C237.334518,161.279480 237.012405,157.972351 237.164871,154.697189 
	C237.465363,148.241730 239.035095,146.688690 245.449356,145.855743 
	C246.103012,145.770844 246.666367,144.990738 247.532471,144.279663 
	C248.829773,143.991791 249.866241,143.957474 251.285889,143.882523 
	C252.380051,144.983826 253.091003,146.125763 253.948029,147.565674 
	C252.200882,148.899292 250.415344,150.383545 248.390228,150.869583 
	C245.015244,151.679596 243.139954,153.347870 242.884140,156.856949 
	C242.512375,161.956650 242.044815,167.049362 241.589966,172.481110 
	C238.588974,172.766220 234.783630,175.086700 234.924408,168.587555 
z"/>
<path fill="#FFD5BB" opacity="1.000000" stroke="none" 
	d="
M48.959232,168.546249 
	C51.746746,168.243439 51.971050,166.480682 51.955441,164.238312 
	C51.889729,154.797394 51.936909,145.355682 51.988304,135.445374 
	C55.232063,134.670074 57.030453,135.628525 56.972481,139.336166 
	C56.818974,149.154495 56.874596,158.977142 56.947075,168.797333 
	C56.968430,171.690704 55.934422,172.961716 52.879131,173.078690 
	C49.667870,173.201630 48.697903,171.835464 48.959232,168.546249 
z"/>
<path fill="#FFD3B8" opacity="1.000000" stroke="none" 
	d="
M286.998749,168.501617 
	C287.975586,167.008911 289.790741,166.004089 289.896118,164.843979 
	C290.268097,160.748581 289.896637,156.592102 290.102081,152.473495 
	C290.364410,147.213623 292.657166,144.952148 297.869232,145.300919 
	C299.032654,145.378769 300.038635,147.808929 301.095825,149.546524 
	C296.721527,151.066315 295.040436,154.154877 294.997101,158.362350 
	C294.949799,162.954865 294.986359,167.548248 294.986359,172.006012 
	C288.539307,173.918930 287.672485,173.546768 286.998749,168.501617 
z"/>
<path fill="#FFD4B9" opacity="1.000000" stroke="none" 
	d="
M90.561523,149.917023 
	C90.975418,153.265976 91.061142,156.603409 91.162048,160.388092 
	C89.347130,160.881104 87.517029,160.926880 85.226364,160.997009 
	C81.359001,157.773285 78.083206,160.811905 74.929184,161.490250 
	C70.069443,162.535400 67.884346,161.248840 67.275970,155.357941 
	C73.205124,155.357941 79.097458,155.357941 85.974907,155.357941 
	C85.669212,152.042770 85.423050,149.373138 85.195709,146.289581 
	C86.887482,147.218933 88.560410,148.562225 90.561523,149.917023 
z"/>
<path fill="#FFD4BA" opacity="1.000000" stroke="none" 
	d="
M116.419807,160.994812 
	C113.145515,158.291885 110.322250,160.153397 107.554375,161.139099 
	C101.826668,163.178879 99.794540,162.102646 98.139420,155.345444 
	C104.279305,155.345444 110.282722,155.345444 116.974228,155.345444 
	C116.974228,152.372803 116.974228,150.116150 117.024292,147.405762 
	C120.702011,149.051437 123.550835,156.209824 121.503868,159.161392 
	C120.713234,160.301437 118.436287,160.410736 116.419807,160.994812 
z"/>
<path fill="#FFD1B4" opacity="1.000000" stroke="none" 
	d="
M31.958191,168.527435 
	C33.428307,166.771545 35.688221,165.677460 36.356091,163.963150 
	C38.979591,157.228989 41.101601,150.299469 43.409828,143.442490 
	C43.877575,143.478958 44.345318,143.515427 44.813061,143.551895 
	C44.813061,150.154648 44.813061,156.757385 44.664089,163.818466 
	C43.445896,165.960281 41.993412,167.519852 41.399345,169.356995 
	C40.556900,171.962234 39.299564,173.070175 36.462326,173.070267 
	C33.387104,173.070358 32.407146,171.453430 31.958191,168.527435 
z"/>
<path fill="#FFD5BC" opacity="1.000000" stroke="none" 
	d="
M185.816437,153.848404 
	C180.041946,148.417694 180.022858,148.402954 184.710114,142.330429 
	C186.830505,139.583374 189.043900,136.908112 191.499298,134.031647 
	C193.943039,134.447876 196.102600,135.032730 198.630951,135.717453 
	C194.405212,141.614410 190.154007,147.546921 185.816437,153.848404 
z"/>
<path fill="#FFD5BB" opacity="1.000000" stroke="none" 
	d="
M305.958191,168.549957 
	C308.725372,168.237762 308.994293,166.504852 308.955719,164.256531 
	C308.856598,158.479004 308.912598,152.698807 308.964233,146.452423 
	C313.666382,146.642334 313.463196,150.750504 313.708710,153.690811 
	C314.216949,159.777115 313.861938,165.935516 313.861938,171.958389 
	C307.695740,174.002457 306.625366,173.564636 305.958191,168.549957 
z"/>
<path fill="#FFD1B4" opacity="1.000000" stroke="none" 
	d="
M16.959743,168.540558 
	C17.647581,166.736847 18.964628,165.367508 19.011995,163.955582 
	C19.235611,157.290283 19.111691,150.613342 20.153069,143.745560 
	C21.741173,147.949371 23.329275,152.153183 24.907562,156.735764 
	C24.434275,162.121368 23.970808,167.128189 23.474808,172.486481 
	C20.528570,172.839752 16.834751,174.879593 16.959743,168.540558 
z"/>
<path fill="#FFD5BC" opacity="1.000000" stroke="none" 
	d="
M97.063080,167.322296 
	C103.557121,169.206070 109.871269,169.935837 115.544510,164.136047 
	C117.518806,165.114746 119.184830,166.226929 120.850845,167.339111 
	C119.504417,168.905212 118.444954,170.956940 116.761086,171.951996 
	C110.066086,175.908173 101.368958,173.875153 97.063080,167.322296 
z"/>
<path fill="#FFD5BB" opacity="1.000000" stroke="none" 
	d="
M67.125061,168.206940 
	C73.226730,168.959717 79.198349,169.505524 84.240906,164.180511 
	C86.261589,164.985046 88.019119,165.940613 89.776657,166.896179 
	C88.720245,168.461594 87.990875,170.485474 86.550659,171.512848 
	C80.400711,175.899933 71.051910,174.355820 67.125061,168.206940 
z"/>
<path fill="#FFD5BC" opacity="1.000000" stroke="none" 
	d="
M169.952606,168.559097 
	C172.577652,168.276764 173.155319,166.814148 173.064987,164.443909 
	C172.917099,160.563354 173.024994,156.673065 173.024994,151.332275 
	C175.514145,154.009552 177.113342,155.729630 178.820923,157.769272 
	C178.438232,162.760803 177.947174,167.432770 177.451477,172.148926 
	C171.584183,173.957306 170.619614,173.557312 169.952606,168.559097 
z"/>
<path fill="#FFD7BE" opacity="1.000000" stroke="none" 
	d="
M142.085556,157.840576 
	C136.874939,152.462631 136.882034,152.468430 141.241684,147.129822 
	C142.280060,145.858261 143.253708,144.533829 144.539047,143.057632 
	C146.743942,143.507538 148.666916,144.133514 151.344696,145.005203 
	C148.270065,149.344772 145.325043,153.501404 142.085556,157.840576 
z"/>
<path fill="#FFD4BA" opacity="1.000000" stroke="none" 
	d="
M127.917908,168.599518 
	C128.896103,167.054840 130.498520,166.054352 130.781433,164.764450 
	C131.262787,162.569885 130.913956,160.193253 130.913956,156.330414 
	C132.743332,158.574493 133.759079,159.820496 134.879547,161.364273 
	C134.996201,164.107635 134.949265,166.555344 135.036850,168.998230 
	C135.121811,171.367783 134.863449,173.021835 131.735062,173.084671 
	C128.574997,173.148117 127.667648,171.806931 127.917908,168.599518 
z"/>
<path fill="#FFD4BA" opacity="1.000000" stroke="none" 
	d="
M203.047089,148.179260 
	C205.282349,146.645126 207.462952,145.026077 209.884796,144.483215 
	C211.043381,144.223526 212.659271,146.003998 214.068039,146.860443 
	C213.069016,148.146118 212.323685,149.955475 211.010117,150.591812 
	C209.151306,151.492279 206.873077,151.526932 204.374268,151.947662 
	C203.680115,150.821259 203.385818,149.678818 203.047089,148.179260 
z"/>
<path fill="#FFD4B9" opacity="1.000000" stroke="none" 
	d="
M256.041504,147.980316 
	C258.487793,146.526321 260.890289,145.152100 263.474030,144.527603 
	C264.406342,144.302277 265.773560,145.876251 266.942322,146.629135 
	C266.097809,147.852112 265.514374,149.619049 264.350861,150.177444 
	C262.333527,151.145630 259.957153,151.365768 257.337524,151.908783 
	C256.652252,150.730759 256.360779,149.543564 256.041504,147.980316 
z"/>
<path fill="#FFD4B9" opacity="1.000000" stroke="none" 
	d="
M135.615662,143.596161 
	C134.511383,145.656799 133.121384,147.440231 130.942047,150.236389 
	C130.942047,143.990631 130.942047,138.944931 130.996429,133.431076 
	C134.052826,132.569122 135.298309,133.795471 135.068771,136.885880 
	C134.910858,139.012039 135.226151,141.173340 135.615662,143.596161 
z"/>
<path fill="#FFD7BE" opacity="1.000000" stroke="none" 
	d="
M188.898880,168.657135 
	C190.922867,168.191010 192.992950,168.088608 195.503784,167.990311 
	C197.352112,169.201782 198.759674,170.409149 200.167252,171.616516 
	C195.519348,172.572571 190.861099,175.093353 188.898880,168.657135 
z"/>
<path fill="#FFD7BE" opacity="1.000000" stroke="none" 
	d="
M141.957916,168.606262 
	C143.679245,168.181213 145.487167,168.106735 147.751358,168.020676 
	C149.588425,169.058441 150.969223,170.107758 152.777130,171.481644 
	C146.433762,174.153610 144.627335,173.603241 141.957916,168.606262 
z"/>
<path fill="#FFD5BC" opacity="1.000000" stroke="none" 
	d="
M178.687546,138.746796 
	C177.328827,140.874100 175.679657,142.776581 173.059875,145.798782 
	C173.059875,141.491211 173.059875,138.644287 173.116379,135.348053 
	C175.892136,134.696564 178.264877,134.994003 178.687546,138.746796 
z"/>
<path fill="#FFD4B9" opacity="1.000000" stroke="none" 
	d="
M211.096313,162.332565 
	C207.901886,163.577667 205.494934,162.644684 205.384918,159.669037 
	C205.342026,158.508865 208.040146,156.972336 209.744202,156.110046 
	C211.095047,155.426483 212.834030,155.509888 216.102890,154.973343 
	C214.053802,158.072433 212.724701,160.082611 211.096313,162.332565 
z"/>
<path fill="#FFD1B4" opacity="1.000000" stroke="none" 
	d="
M77.695267,146.447449 
	C78.272545,147.966171 78.635414,149.158279 79.058052,150.546722 
	C74.810799,150.546722 71.108734,150.546722 67.343422,150.546722 
	C68.489326,143.855850 71.747765,142.562637 77.695267,146.447449 
z"/>
<path fill="#FFD3B8" opacity="1.000000" stroke="none" 
	d="
M261.395081,156.250366 
	C263.580994,155.555344 265.401001,154.997284 267.332458,154.405045 
	C267.913116,158.613937 266.657990,161.836884 262.225494,162.703079 
	C261.052246,162.932373 259.550049,161.478302 258.198883,160.797165 
	C259.142303,159.327225 260.085754,157.857285 261.395081,156.250366 
z"/>
<path fill="#FFD1B4" opacity="1.000000" stroke="none" 
	d="
M98.446457,150.063568 
	C98.821037,145.795273 101.225800,143.757629 105.012489,144.193878 
	C108.261787,144.568222 110.285744,146.599533 109.655800,151.075165 
	C105.946243,150.853317 102.284576,150.634338 98.446457,150.063568 
z"/>
</svg>